<svg xmlns="http://www.w3.org/2000/svg" width="156" height="40" viewBox="0 0 156 40" fill="none"><path d="M140.436 13.789C141.186 13.6643 142.536 13.3899 143.561 12.5918C144.911 11.5693 145.411 9.82349 145.411 8.35203C145.411 7.22973 145.136 5.80815 144.161 4.66091C142.561 2.81536 140.561 2.54102 138.387 2.54102H125.164V21.6949H129.988V14.0633H135.637L140.761 21.6949H146.235M137.662 10.6964H129.988V6.00767H137.437C139.337 6.00767 139.812 6.45659 140.161 6.93045C140.486 7.37937 140.536 8.05275 140.536 8.42685C140.536 10.5468 138.687 10.6964 137.662 10.6964Z" fill="white"></path><path d="M104.891 21.6949H122.763V18.2781H109.69V13.7141H121.563V10.3223H109.69V6.00767H122.763V2.54102H104.891" fill="white"></path><path d="M84.7266 21.6949H89.5507V13.7141H101.274V10.3223H89.5507V6.00767H102.499V2.54102H84.7266" fill="white"></path><path d="M81.5507 2.56641H76.7266V21.7203H81.5507V2.56641Z" fill="white"></path><path d="M47.8791 5.68392C45.4795 2.79088 41.1803 1.81822 37.4059 1.96786C31.107 2.2422 26.3828 5.58416 26.3828 12.1683C26.3828 18.129 30.4821 22.3438 38.2308 22.3438C45.9795 22.3438 49.9538 18.0542 49.9538 11.9439C49.9538 8.7266 48.679 6.63164 47.8791 5.68392ZM38.1558 18.9021C34.4314 18.9021 33.0067 16.9319 32.5568 16.2585C32.2068 15.8096 31.332 14.5875 31.332 12.2431C31.332 7.6043 34.7564 5.4844 37.9558 5.38464C41.7802 5.25994 45.0296 7.87864 45.0296 12.1683C45.0296 15.8844 42.655 18.9021 38.1558 18.9021Z" fill="white"></path><path d="M137.562 33.7421C137.787 34.0912 138.387 34.9392 140.087 35.3632C140.662 35.5128 141.537 35.6126 142.212 35.6126C143.911 35.6126 145.186 35.2135 145.836 34.3157C146.211 33.8169 146.261 33.2682 146.261 32.944C146.261 31.5972 145.261 31.0236 144.361 30.8241C144.011 30.7493 143.661 30.6994 143.312 30.6495C142.562 30.5747 141.837 30.5248 141.087 30.45C140.312 30.3752 139.887 30.3003 139.612 29.9761C139.462 29.8015 139.362 29.602 139.362 29.3526C139.362 29.0035 139.537 28.5795 140.087 28.3051C140.587 28.0557 141.412 27.9809 142.062 27.9809C142.962 27.9809 143.861 28.1555 144.611 28.6792C144.811 28.8039 144.911 28.9286 145.086 29.1032L146.161 28.6792C145.936 28.355 145.736 28.1306 145.336 27.8562C144.386 27.2078 143.212 27.0332 142.062 27.0332C141.312 27.0332 138.187 27.0831 138.187 29.4274C138.187 29.8015 138.262 30.3253 138.762 30.7991C139.387 31.3728 140.112 31.4226 142.162 31.5972C143.786 31.7469 145.086 31.8466 145.086 32.9939C145.086 33.9915 144.086 34.6648 142.287 34.6648C141.187 34.6648 140.112 34.4903 139.212 33.8668C138.887 33.6672 138.762 33.5176 138.637 33.368" fill="white"></path><path d="M127.414 27.1816V35.4118H128.539V29.925C128.539 29.2267 128.514 29.0771 128.464 28.5035C128.714 28.8027 128.814 28.9274 129.114 29.2517L134.938 35.4118H136.088V27.1816H134.963V32.843C134.988 33.3668 134.988 33.4665 135.038 34.0651C134.638 33.5912 134.563 33.4915 134.163 33.0675L128.614 27.1816" fill="white"></path><path d="M120.544 26.9824C118.095 26.9824 115.57 28.3541 115.57 31.3968C115.57 33.1426 116.445 34.1651 117.245 34.7138C118.22 35.4121 119.42 35.6117 120.619 35.6117C123.269 35.6117 125.569 34.1901 125.569 31.3968C125.594 28.7033 123.419 27.0074 120.544 26.9824ZM120.619 34.6141C119.42 34.6141 118.22 34.3148 117.445 33.4169C116.895 32.7934 116.72 31.9704 116.72 31.322C116.72 28.8779 118.67 28.0299 120.394 27.98C122.644 27.9301 124.394 29.1273 124.394 31.297C124.394 32.6937 123.669 34.6141 120.619 34.6141Z" fill="white"></path><path d="M113.77 27.1816H112.57V35.4118H113.77V27.1816Z" fill="white"></path><path d="M103.297 28.1792H106.671V35.4118H107.821V28.1792H111.196V27.1816H103.297" fill="white"></path><path d="M93.4766 27.1831V32.0215C93.4766 32.9443 93.5266 34.0167 94.6764 34.8148C95.5762 35.4383 96.651 35.6129 97.7258 35.6129C99.1756 35.6129 100.1 35.2886 100.675 34.9145C101.925 34.0915 101.925 32.9692 101.925 32.1462V27.2081H100.75V32.221C100.75 32.9193 100.75 33.7673 99.7005 34.2412C99.2506 34.4407 98.5507 34.5903 97.7508 34.5903C96.4511 34.5903 95.7762 34.2412 95.4762 34.0167C94.7763 33.5678 94.6764 32.9942 94.6514 32.0464V27.1582" fill="white"></path><path d="M85.8984 35.4118H92.5223V34.4142H87.0732V27.1816H85.8984" fill="white"></path><path d="M79.0288 26.9824C76.5543 26.9824 74.0547 28.3541 74.0547 31.3968C74.0547 33.1426 74.9295 34.1651 75.7294 34.7138C76.7042 35.4121 77.904 35.6117 79.1038 35.6117C81.7534 35.6117 84.053 34.1901 84.053 31.3968C84.078 28.7033 81.9283 27.0074 79.0288 26.9824ZM79.1288 34.6141C77.929 34.6141 76.7292 34.3148 75.9544 33.4169C75.4045 32.7934 75.2295 31.9704 75.2295 31.322C75.2295 28.8779 77.2041 28.0299 78.9039 27.98C81.1535 27.9301 82.9032 29.1273 82.9032 31.297C82.9032 32.6937 82.1533 34.6141 79.1288 34.6141Z" fill="white"></path><path d="M64.0781 33.7421C64.3031 34.0912 64.903 34.9392 66.6027 35.3632C67.1776 35.5128 68.0524 35.6126 68.7273 35.6126C70.427 35.6126 71.7018 35.2135 72.3517 34.3157C72.7016 33.8169 72.7766 33.2682 72.7766 32.944C72.7766 31.5972 71.7768 31.0236 70.902 30.8241C70.552 30.7493 70.1771 30.6994 69.8271 30.6495C69.0773 30.5747 68.3524 30.5248 67.6025 30.45C66.8277 30.3752 66.4027 30.3003 66.1278 29.9761C65.9778 29.8015 65.8778 29.602 65.8778 29.3526C65.8778 29.0035 66.0278 28.5795 66.6027 28.3051C67.0776 28.0557 67.9275 27.9809 68.5774 27.9809C69.4772 27.9809 70.377 28.1555 71.1269 28.6792C71.3269 28.8039 71.4269 28.9286 71.6018 29.1032L72.6767 28.6792C72.4267 28.355 72.2517 28.1306 71.8518 27.8562C70.902 27.2078 69.7272 27.0332 68.5774 27.0332C67.8275 27.0332 64.703 27.0831 64.703 29.4274C64.703 29.8015 64.778 30.3253 65.2779 30.7991C65.9028 31.3728 66.6277 31.4226 68.6773 31.5972C70.3021 31.7469 71.6018 31.8466 71.6018 32.9939C71.6018 33.9915 70.602 34.6648 68.8023 34.6648C67.7025 34.6648 66.6277 34.4903 65.7278 33.8668C65.4029 33.6672 65.2779 33.5176 65.1529 33.368" fill="white"></path><path d="M49.3047 35.4118H50.5045V31.5212H56.8034V35.4118H57.9782V27.1816H56.8034V30.5485H50.5045V27.1816H49.3047" fill="white"></path><path d="M40.0312 28.1792H43.3807V35.4118H44.5555V28.1792H47.9299V27.1816H40.0312" fill="white"></path><path d="M34.2812 35.4118H40.9051V34.4142H35.4311V27.1816H34.2812" fill="white"></path><path d="M28.7631 27.1816H27.5383L23.2891 35.4118H24.5888L25.5887 33.3917H30.6628L31.6626 35.4118H33.0124M26.0636 32.419L27.8133 29.0023C27.8883 28.8526 27.9633 28.703 28.0133 28.5533C28.0632 28.4286 28.0882 28.3289 28.1382 28.2042C28.1632 28.3039 28.1882 28.4037 28.2382 28.5284C28.2882 28.678 28.3632 28.8027 28.4132 28.9524L30.1629 32.419H26.0636Z" fill="white"></path><path d="M14.4141 35.4118H22.3127V34.3893H15.5639V31.621H21.8378V30.6483H15.5639V28.2042H22.0128V27.1816H14.4141" fill="white"></path><path d="M3.4375 27.1816H4.6123V30.5485H10.9362V27.1816H12.111V35.4118H10.9362V31.5212H4.6123V35.4118H3.4375" fill="white"></path><path d="M13.6651 18.8273C10.0158 18.8273 6.74133 16.3333 6.74133 12.1434V12.1184C6.74133 7.9285 10.0408 5.43451 13.6651 5.43451C17.8144 5.43451 19.0892 7.87863 19.7391 9.05081L24.7882 9.07575C24.4383 7.87863 24.0134 6.50693 22.2887 4.93571C20.7389 3.51413 18.1894 1.91797 13.2902 1.91797C6.49137 1.91797 1.76718 5.45944 1.74219 12.1184C1.76718 18.7774 6.49137 22.3189 13.2902 22.3189C18.1894 22.3189 20.7389 20.7227 22.2887 19.3011C24.0134 17.7299 24.4383 16.3333 24.7882 15.1611L19.7391 15.186C19.1142 16.3832 17.8394 18.8273 13.6651 18.8273Z" fill="white"></path><path d="M68.93 2.54102V12.3424C68.93 12.4422 68.93 12.5419 68.93 12.6417V16.0585C67.8802 14.7616 67.6302 14.4623 66.5554 13.1904L57.157 2.54102H52.3828V21.6949H56.957V8.10263C57.9069 9.29975 58.3068 9.79855 59.2816 10.9209L68.805 21.7199H73.5542V2.54102" fill="white"></path><path d="M148.064 28.3797C148.164 28.1552 148.314 27.9557 148.464 27.7811C148.639 27.6065 148.839 27.4818 149.064 27.3821C149.289 27.2823 149.539 27.2324 149.789 27.2324C150.039 27.2324 150.289 27.2823 150.514 27.3821C150.739 27.4818 150.939 27.6065 151.114 27.7811C151.288 27.9557 151.413 28.1552 151.513 28.3797C151.613 28.6041 151.663 28.8535 151.663 29.1279C151.663 29.4022 151.613 29.6516 151.513 29.8761C151.413 30.1005 151.263 30.3 151.114 30.4746C150.939 30.6492 150.739 30.7739 150.514 30.8737C150.289 30.9734 150.039 31.0233 149.789 31.0233C149.539 31.0233 149.289 30.9734 149.064 30.8737C148.839 30.7739 148.639 30.6492 148.464 30.4746C148.289 30.3 148.164 30.1005 148.064 29.8761C147.964 29.6516 147.914 29.4022 147.914 29.1279C147.914 28.8785 147.964 28.6291 148.064 28.3797ZM148.364 29.7763C148.439 29.9758 148.564 30.1504 148.689 30.3C148.839 30.4497 148.989 30.5494 149.189 30.6492C149.389 30.724 149.589 30.7739 149.814 30.7739C150.039 30.7739 150.239 30.724 150.439 30.6492C150.639 30.5744 150.789 30.4497 150.939 30.3C151.089 30.1504 151.188 29.9758 151.263 29.7763C151.338 29.5768 151.388 29.3773 151.388 29.1279C151.388 28.9034 151.338 28.7039 151.263 28.5044C151.188 28.3048 151.064 28.1303 150.939 28.0056C150.789 27.8559 150.639 27.7562 150.439 27.6564C150.239 27.5816 150.039 27.5317 149.814 27.5317C149.589 27.5317 149.389 27.5816 149.189 27.6564C148.989 27.7312 148.839 27.8559 148.689 28.0056C148.539 28.1552 148.439 28.3298 148.364 28.5044C148.289 28.7039 148.239 28.9034 148.239 29.1279C148.264 29.3523 148.289 29.5768 148.364 29.7763Z" fill="white"></path><path d="M150.115 29.2523C150.265 29.2273 150.39 29.1774 150.515 29.1026C150.615 29.0029 150.665 28.8782 150.665 28.6786C150.665 28.4791 150.615 28.3295 150.49 28.2297C150.365 28.13 150.19 28.0801 149.94 28.0801H149.141V30.175H149.466V29.2772H149.816L150.39 30.175H150.74M149.791 29.0278H149.441V28.3544H149.866H150.04L150.19 28.4043L150.29 28.5041L150.34 28.6786L150.29 28.8782L150.165 28.9779L149.99 29.0278H149.791Z" fill="white"></path></svg>