<svg xmlns="http://www.w3.org/2000/svg" width="221" height="308" viewBox="0 0 221 308" fill="none"><path fill-rule="evenodd" clip-rule="evenodd" d="M148.216 144.575L148.785 226.302L44.4541 226.984L43.8805 145.266C43.6369 110.287 53.816 78.1744 65.1642 53.4062C77.9774 25.457 92.2409 6.7923 94.7135 3.66548L94.8873 3.38049L95.0501 3.19936C95.0501 3.19936 111.114 22.4448 125.555 52.873C137.293 77.4928 147.974 109.489 148.216 144.575Z" fill="white"></path><path fill-rule="evenodd" clip-rule="evenodd" d="M115.07 144.764L115.644 226.482L77.2192 226.744L76.6248 145.05C76.5161 116.647 78.6301 88.2798 82.9475 60.2072C87.7787 28.4855 93.7378 6.99744 94.7025 3.6391L94.8198 3.17868L94.8763 3.3541C95.5823 5.54821 102.076 27.3387 107.509 60.0818C112.225 88.0702 114.753 116.383 115.07 144.764Z" fill="#02C0C0"></path><path fill-rule="evenodd" clip-rule="evenodd" d="M125.56 52.8554C120.006 56.2943 113.901 58.7512 107.514 60.1183C103.505 61.0085 99.4134 61.4726 95.3071 61.5028C91.1515 61.5426 87.0038 61.1327 82.9363 60.2806C76.666 59.0119 70.6516 56.7044 65.142 53.4532C77.9552 25.504 92.2187 6.83933 94.6913 3.71251L94.8086 3.25208L94.8651 3.42751L95.0279 3.24639C95.0279 3.24639 111.108 22.4548 125.56 52.8554Z" fill="#7BD9D9"></path><path fill-rule="evenodd" clip-rule="evenodd" d="M107.495 60.1104C103.486 61.0006 99.3948 61.4646 95.2886 61.4949C91.133 61.5346 86.9853 61.1248 82.9178 60.2727C87.749 28.551 93.708 7.06293 94.6727 3.7046L94.7901 3.24417L94.8466 3.4196C95.5865 5.58456 102.08 27.375 107.495 60.1104Z" fill="#144C4C"></path><path fill-rule="evenodd" clip-rule="evenodd" d="M122.175 110.754C122.222 117.596 119.55 124.177 114.747 129.051C109.945 133.925 103.404 136.693 96.5617 136.748C89.7153 136.794 83.1308 134.12 78.256 129.312C73.3812 124.505 70.6154 117.958 70.5667 111.112C70.522 104.272 73.1961 97.6946 78.0009 92.8265C82.8056 87.9584 89.3474 85.1986 96.1871 85.1538C99.5747 85.1276 102.934 85.769 106.074 87.0416C109.213 88.3141 112.071 90.1928 114.485 92.5702C116.898 94.9475 118.82 97.777 120.139 100.897C121.459 104.017 122.151 107.367 122.175 110.754Z" fill="#EFF9FC"></path><path fill-rule="evenodd" clip-rule="evenodd" d="M96.23 89.825C90.6309 89.8739 85.2795 92.1402 81.3481 96.1271C77.4166 100.114 75.2256 105.497 75.2551 111.096C75.297 116.695 77.5606 122.048 81.5483 125.979C85.536 129.91 90.9214 132.096 96.5206 132.057C102.12 132.009 107.471 129.742 111.401 125.754C115.331 121.766 117.519 116.382 117.486 110.783C117.435 105.188 115.17 99.842 111.186 95.9141C107.202 91.9862 101.825 89.7967 96.23 89.825ZM96.5876 141.434C88.5146 141.475 80.7539 138.317 75.0023 132.652C69.2507 126.987 65.9763 119.275 65.8949 111.202C65.8515 103.128 69.008 95.3661 74.6737 89.614C80.3395 83.8618 88.0531 80.5882 96.1266 80.5095C104.202 80.4608 111.967 83.6156 117.721 89.2824C123.474 94.9493 126.746 102.666 126.819 110.741C126.865 118.816 123.71 126.58 118.043 132.332C112.377 138.085 104.662 141.358 96.5876 141.434Z" fill="#02C0C0"></path><path fill-rule="evenodd" clip-rule="evenodd" d="M112.599 105.641C112.612 106.995 112.357 108.339 111.849 109.595C111.341 110.85 110.59 111.993 109.639 112.957C108.688 113.922 107.556 114.689 106.308 115.214C105.06 115.74 103.72 116.014 102.366 116.02C101.009 116.033 99.663 115.779 98.4052 115.27C97.1474 114.762 96.0026 114.009 95.0367 113.057C94.0707 112.104 93.3027 110.97 92.7767 109.719C92.2508 108.468 91.9774 107.126 91.9722 105.769C91.955 103.036 93.0244 100.407 94.9452 98.4611C96.8659 96.5155 99.4808 95.4125 102.215 95.3946C104.95 95.3776 107.58 96.4473 109.527 98.3686C111.475 100.29 112.579 102.906 112.599 105.641Z" fill="#FEFEFE"></path><path fill-rule="evenodd" clip-rule="evenodd" d="M165.056 227.892C164.759 191.904 157.453 162.821 148.655 162.881C139.856 162.941 132.971 192.088 133.201 228.135L165.056 227.892Z" fill="#144C4C"></path><path fill-rule="evenodd" clip-rule="evenodd" d="M156.415 227.965C156.136 191.984 152.692 162.874 148.678 162.903C144.665 162.932 141.639 192.082 141.869 228.075L156.415 227.965Z" fill="#7BD9D9"></path><path fill-rule="evenodd" clip-rule="evenodd" d="M135.367 230.81L143.669 261.059L146.296 252.293L151.342 267.532L154.825 252.228L158.028 260.979L162.985 230.612L135.367 230.81Z" fill="#FF6868"></path><path fill-rule="evenodd" clip-rule="evenodd" d="M138.996 230.784L145.106 253.075L147.052 246.604L150.759 257.822L153.324 246.568L155.692 252.995L159.347 230.638L138.996 230.784Z" fill="#F82121"></path><path fill-rule="evenodd" clip-rule="evenodd" d="M117.813 253.279C117.42 205.863 107.769 167.587 96.2489 167.698C84.7286 167.809 75.5619 206.192 75.8679 253.582L117.813 253.279Z" fill="#144C4C"></path><path fill-rule="evenodd" clip-rule="evenodd" d="M106.373 253.381C106.036 205.988 101.469 167.666 96.1973 167.72C90.9256 167.774 86.9061 206.116 87.2175 253.519L106.373 253.381Z" fill="#7BD9D9"></path><path fill-rule="evenodd" clip-rule="evenodd" d="M78.6357 257.132L89.5601 296.973L93.0325 285.416L99.6817 305.493L104.255 285.343L108.498 296.862L114.991 256.891L78.6357 257.132Z" fill="#FF6868"></path><path fill-rule="evenodd" clip-rule="evenodd" d="M83.4327 257.104L91.4768 286.443L94.0322 277.95L98.921 292.711L102.313 277.857L105.409 286.346L110.213 256.912L83.4327 257.104Z" fill="#F82121"></path><path fill-rule="evenodd" clip-rule="evenodd" d="M60.4058 228.636C60.1033 192.634 52.7614 163.612 44.0098 163.638C35.2582 163.663 28.308 192.837 28.5597 228.882L60.4058 228.636Z" fill="#144C4C"></path><path fill-rule="evenodd" clip-rule="evenodd" d="M51.7373 228.696C51.4716 192.71 48.0055 163.601 44.01 163.638C40.0145 163.675 36.939 192.815 37.1916 228.806L51.7373 228.696Z" fill="#7BD9D9"></path><path fill-rule="evenodd" clip-rule="evenodd" d="M30.6679 231.548L38.9658 261.806L41.5965 253.031L46.6387 268.28L50.1352 252.97L53.3316 261.686L58.277 231.346L30.6679 231.548Z" fill="#FF6868"></path><path fill-rule="evenodd" clip-rule="evenodd" d="M34.3119 231.522L40.4262 253.803L42.3641 247.351L46.081 258.573L48.6496 247.31L51.0079 253.733L54.6508 231.381L34.3119 231.522Z" fill="#F82121"></path></svg>